<?xml version="1.0" standalone="no"?>
<!DOCTYPE svg PUBLIC "-//W3C//DTD SVG 20010904//EN"
 "http://www.w3.org/TR/2001/REC-SVG-20010904/DTD/svg10.dtd">
<svg version="1.0" xmlns="http://www.w3.org/2000/svg"
 width="960.000000pt" height="960.000000pt" viewBox="0 0 960.000000 960.000000"
 preserveAspectRatio="xMidYMid meet">
<metadata>
Created by potrace 1.11, written by Peter Selinger 2001-2013
</metadata>
<g transform="translate(0.000000,960.000000) scale(0.100000,-0.100000)"
fill="#000000" stroke="none">
<path d="M6577 8793 c-7 -22 -49 -230 -53 -258 -1 -11 -3 -20 -4 -20 -1 0 -3
-7 -5 -15 -1 -8 -7 -40 -14 -70 -6 -30 -13 -66 -15 -80 -3 -14 -12 -61 -22
-105 -9 -44 -18 -87 -19 -95 -2 -8 -4 -15 -5 -15 -1 0 -3 -13 -5 -30 -2 -16
-7 -41 -11 -55 -4 -14 -9 -32 -10 -40 -4 -38 -14 -88 -23 -118 -5 -18 -10 -35
-10 -37 0 -3 -2 -18 -5 -33 -3 -15 -8 -38 -11 -52 -2 -14 -9 -47 -15 -75 -6
-27 -13 -66 -16 -85 -8 -45 -12 -65 -14 -65 -2 0 -6 -18 -14 -63 -4 -18 -13
-65 -22 -105 -20 -95 -32 -153 -40 -202 -1 -5 -3 -13 -4 -17 -1 -5 -3 -14 -4
-20 -3 -22 3 -24 -426 185 -102 50 -187 91 -190 92 -3 1 -104 49 -225 108
-121 60 -272 133 -336 165 l-116 56 14 61 c8 33 17 69 20 80 2 11 7 31 10 45
2 14 7 32 10 40 8 18 7 16 18 65 4 22 9 45 11 50 2 6 5 20 8 33 3 13 8 32 11
42 3 10 8 27 10 37 3 10 16 63 30 118 14 55 27 109 29 121 1 11 6 26 10 32 4
7 1 12 -6 13 -33 3 -259 14 -503 24 -55 2 -149 7 -210 10 -60 3 -166 8 -235
11 -69 3 -151 6 -182 9 -41 2 -60 -1 -69 -11 -6 -8 -8 -14 -3 -14 5 0 5 -4 -1
-8 -5 -4 -15 -16 -21 -27 -78 -143 -102 -187 -126 -228 -15 -26 -28 -49 -28
-51 0 -2 -26 -50 -58 -107 -31 -57 -68 -125 -82 -151 -14 -27 -28 -48 -32 -48
-5 0 -8 -6 -8 -13 0 -12 -78 -157 -97 -182 -4 -5 -14 -21 -21 -35 -10 -21 -19
-25 -50 -23 -20 1 -37 2 -37 3 0 3 -31 8 -91 14 -32 4 -72 9 -89 11 -16 3 -55
7 -85 10 -30 4 -68 8 -85 10 -16 1 -50 5 -75 9 -25 3 -65 8 -90 11 -25 3 -65
8 -90 11 -25 3 -55 7 -68 9 -15 1 -26 -4 -30 -14 -3 -9 -8 -18 -12 -21 -3 -3
-39 -63 -78 -135 -40 -71 -77 -137 -83 -145 -5 -8 -12 -23 -15 -32 -4 -10 -10
-18 -15 -18 -5 0 -9 -5 -9 -10 0 -6 -24 -52 -53 -103 -29 -50 -56 -99 -60
-107 -4 -8 -21 -37 -37 -65 -17 -27 -38 -66 -47 -85 -9 -19 -20 -37 -24 -40
-3 -3 -21 -34 -40 -70 -19 -36 -40 -71 -47 -78 -6 -7 -12 -20 -12 -28 0 -8 -4
-14 -10 -14 -5 0 -10 -5 -10 -10 0 -6 -45 -89 -100 -186 -55 -97 -100 -180
-100 -185 0 -5 -4 -9 -10 -9 -5 0 -10 -6 -10 -14 0 -8 -7 -22 -16 -30 -8 -9
-12 -16 -7 -16 4 0 4 -4 -2 -8 -5 -4 -18 -23 -29 -42 -21 -40 -23 -43 -153
-275 -125 -221 -121 -214 -146 -226 -12 -5 -35 -18 -52 -29 -16 -11 -43 -26
-60 -34 -16 -8 -41 -22 -55 -30 -38 -23 -218 -125 -280 -158 -30 -17 -80 -45
-111 -64 -31 -19 -60 -34 -64 -34 -4 0 -19 -8 -33 -19 -27 -18 -78 -47 -197
-111 -33 -18 -64 -36 -70 -40 -5 -4 -32 -20 -60 -36 -55 -30 -89 -49 -184
-103 -75 -43 -140 -79 -198 -110 -41 -22 -52 -39 -36 -55 5 -4 8 -11 9 -14 1
-9 19 -52 46 -110 12 -26 23 -51 24 -57 1 -5 15 -38 32 -72 17 -35 28 -63 26
-63 -3 0 2 -12 10 -28 21 -36 107 -233 111 -252 2 -9 13 -33 24 -53 12 -21 21
-44 21 -52 0 -8 5 -15 10 -15 6 0 9 -3 9 -7 -1 -5 0 -11 1 -15 1 -5 3 -11 4
-15 1 -5 10 -26 20 -48 25 -54 47 -103 90 -205 21 -47 48 -107 61 -135 26 -55
58 -127 59 -136 1 -7 35 -82 98 -218 26 -57 48 -105 48 -107 0 -5 47 -107 110
-238 29 -60 53 -114 54 -120 1 -6 4 -15 7 -21 7 -10 31 -82 35 -100 1 -5 9
-30 17 -55 13 -41 24 -80 32 -120 2 -8 8 -33 13 -55 6 -22 14 -52 17 -67 3
-16 7 -38 10 -50 7 -34 14 -69 21 -108 4 -19 9 -44 11 -55 2 -11 6 -36 9 -55
2 -19 13 -87 24 -150 10 -63 22 -139 25 -168 6 -46 10 -53 33 -58 15 -4 37
-13 50 -20 12 -8 22 -12 22 -9 0 3 30 -7 68 -21 37 -14 72 -27 77 -28 10 -3
23 -8 63 -23 9 -3 19 -7 22 -8 3 -1 14 -5 25 -9 61 -23 75 -28 80 -27 3 1 19
-6 35 -14 16 -8 33 -16 37 -16 5 -1 18 -5 31 -10 13 -5 27 -9 32 -9 5 0 26 -7
47 -16 21 -9 47 -20 58 -25 33 -13 199 -71 210 -73 6 -1 16 -5 22 -9 9 -5 33
11 70 45 92 86 141 130 277 253 49 44 108 98 131 120 38 35 127 114 186 166
33 29 160 142 195 174 38 35 136 121 172 150 13 11 42 37 64 58 22 20 44 37
48 37 5 0 10 4 12 8 9 24 310 257 372 289 17 9 33 19 36 22 3 3 30 19 60 35
30 16 70 38 88 48 17 10 34 18 37 18 3 0 25 9 51 20 25 11 58 23 72 27 15 3
37 13 50 21 12 8 22 12 22 8 0 -3 11 -1 25 4 14 5 36 12 48 15 23 5 95 21 137
30 89 19 286 24 405 11 38 -4 72 -9 75 -11 3 -2 26 -6 50 -10 121 -18 358
-118 495 -208 52 -35 190 -140 205 -157 3 -3 21 -17 40 -32 19 -14 49 -39 66
-55 17 -15 64 -57 104 -93 40 -36 103 -92 139 -126 36 -33 81 -74 99 -90 18
-16 63 -58 101 -94 63 -60 259 -244 324 -304 15 -14 33 -26 40 -26 12 0 192
-55 232 -71 28 -11 123 -41 138 -43 7 -1 17 -4 22 -7 8 -5 55 -19 75 -23 3 -1
10 -4 15 -7 6 -4 26 -10 45 -14 19 -4 41 -12 48 -17 6 -6 12 -8 12 -4 0 3 16
0 35 -8 19 -8 35 -12 35 -9 0 3 6 1 13 -4 11 -10 49 -22 91 -30 11 -2 25 -8
32 -14 6 -5 16 -9 20 -8 5 1 16 0 24 -4 8 -3 90 -30 181 -59 l167 -54 58 21
c33 12 68 25 79 30 44 18 121 47 130 50 6 1 28 10 49 19 22 10 47 20 55 21 15
4 118 44 166 65 11 5 77 30 147 57 86 32 130 54 137 68 16 33 51 114 51 118 0
3 12 31 27 63 14 33 27 64 28 69 2 6 12 30 23 55 22 50 116 282 118 290 0 3
10 27 22 53 12 27 22 55 22 62 0 8 5 17 10 20 6 3 10 15 10 26 0 10 4 19 8 19
5 0 9 6 9 13 0 11 14 47 98 262 13 33 45 116 70 185 25 69 49 134 54 145 5 11
22 56 37 100 15 44 33 94 40 110 16 39 105 294 111 320 3 11 8 29 13 40 7 17
52 151 55 165 1 3 10 32 20 65 10 33 20 65 22 70 1 6 21 71 43 145 23 74 43
142 45 150 2 8 15 60 30 115 35 133 31 120 50 205 39 178 53 266 49 313 -2 23
-4 49 -5 57 -4 46 -59 173 -111 255 -92 145 -310 378 -573 610 -90 79 -92 81
-166 147 -103 91 -122 107 -162 141 -21 18 -51 43 -66 57 -26 25 -154 137
-195 173 -119 103 -413 390 -492 480 -39 46 -54 84 -114 292 -12 42 -44 145
-75 245 -14 47 -28 92 -30 100 -16 65 -69 229 -80 245 -7 12 -59 56 -116 100
-275 209 -290 223 -374 342 -44 63 -89 124 -100 137 -11 13 -45 59 -75 103
-30 43 -57 80 -60 83 -3 3 -17 21 -30 40 -14 19 -28 40 -33 45 -4 6 -18 25
-31 43 -21 28 -25 31 -29 15z"/>
<path d="M8322 1615 c-30 -7 -63 -17 -75 -23 -12 -6 -89 -36 -171 -67 -164
-61 -155 -60 -507 -69 -64 -2 -121 -6 -127 -10 -7 -4 -4 -19 8 -44 18 -34 62
-127 200 -417 29 -60 65 -138 82 -172 26 -58 32 -63 61 -64 18 -1 61 -3 97 -4
36 -2 109 -6 162 -8 l96 -5 39 46 c21 25 49 58 63 74 22 25 55 137 75 253 3
17 9 48 14 70 10 39 21 90 22 100 0 2 7 31 14 63 8 33 17 72 20 88 3 16 7 34
9 39 1 6 8 37 15 70 7 33 15 68 17 78 4 14 -1 17 -28 16 -18 0 -57 -7 -86 -14z"/>
</g>
</svg>
