<svg height="107" viewBox="0 0 107 107" width="107" xmlns="http://www.w3.org/2000/svg"><g fill="none" fill-rule="evenodd" transform="translate(.276502 .276502)"><path d="m23.4479923 46.2027789 8.9782661-5.0665329 6.9096492-12.201479 4.83431.5746498 3.1081199-5.6432196 7.482873.3448713-1.1537811 4.6098279 8.0613932 3.9119369 2.1845247-10.5924188 2.7599893 3.7972515 2.5391739 1.9584129 1.6082453 5.2977372c4.3778086 4.9510326 11.862515 9.3239523 11.2854208 12.7769436-1.1046883 6.6354632-6.6843523 19.4623143-6.6843523 19.4623143l-5.0545143 1.9527092-7.6044845-2.4195994s-4.1576043-4.0137891-6.1027765-5.525886c-3.6813437-2.8789526-8.2866901-2.6455075-12.3159607.5768905-2.3423956 1.8763201-8.1766898 7.2553354-8.1766898 7.2553354l-5.7534237-2.0728948s-.5754646-4.9518473-1.6149676-7.0263717c-1.0335955-2.0684133-5.2910149-11.9704783-5.2910149-11.9704783" fill="#fbd020"/><path d="m69.1525105 68.1594521 3.1101569-.1161114 2.4120624-.920336.8074838-.1175373-1.04154 4.721254-.8040208.923799-2.4090068-.120593z" fill="#fbd020"/><path d="m11.0212164 71.49348c0-.5754645.4646494-1.0350214 1.040114-1.0350214.570372 0 1.0364474.4595569 1.0364474 1.0350214 0 .5695572-.4660754 1.0335956-1.0364474 1.0335956-.5754646 0-1.040114-.4640384-1.040114-1.0335956" fill="#fbd020"/><path d="m93.2301527 71.49348c0-.5754645.4611864-1.0350214 1.0321695-1.0350214.5726128 0 1.0364474.4595569 1.0364474 1.0350214 0 .5695572-.4638346 1.0335956-1.0364474 1.0335956-.5709831 0-1.0321695-.4640384-1.0321695-1.0335956" fill="#fbd020"/><path d="m53.2652063 104.484814c-28.2786356 0-51.2090153-22.9289536-51.2090153-51.2134966 0-28.288006 22.9303797-51.21838567 51.2090153-51.21838567 28.2869874 0 51.2157377 22.93037967 51.2157377 51.21838567 0 28.284543-22.9287503 51.2134966-51.2157377 51.2134966m0-104.4799251c-29.4148981 0-53.2652063 23.8472527-53.2652063 53.2664285 0 29.4195832 23.8503082 53.2660206 53.2652063 53.2660206 29.4218239 0 53.2711137-23.8464374 53.2711137-53.2660206 0-29.4191758-23.8492898-53.2664285-53.2711137-53.2664285" fill="#fbd020"/><path d="m53.3929288 89.3897159c-19.8876488 0-36.0053426-16.1109715-36.0053426-35.9994352 0-19.8831674 16.1176938-35.9992315 36.0053426-35.9992315 19.8797044 0 35.9996389 16.1160641 35.9996389 35.9992315 0 19.8884637-16.1199345 35.9994352-35.9996389 35.9994352m0-73.4410967c-20.6818918 0-37.4469578 16.7622141-37.4469578 37.4416615 0 20.6857622 16.765066 37.4410504 37.4469578 37.4410504 20.6767993 0 37.4381986-16.7552882 37.4381986-37.4410504 0-20.6794474-16.7613993-37.4416615-37.4381986-37.4416615" fill="#fbd020"/><g fill="#005f4e"><path d="m11.551866 64.929517-2.78932269-.2041117-.00366668-.0087592 2.43039577-1.3623743zm2.4707292.1863894-1.386615-.1128521-.5041681-2.178821 1.2016515-.6974835-.2717415-1.1904478-5.66460858 3.3266946.32735278 1.4035225 6.5580556.5768905z"/><path d="m6.27103626 57.1148097 3.37823178-.3566862c1.05539186-.1132595 2.01932056-.1660189 2.14195046 1.0217807.1203893 1.1774108-.8280579 1.3271334-1.88283862 1.4401893l-3.37965771.3536306.12690777 1.2026701 3.89849256-.411279c1.6546898-.1731486 2.345451-1.3314111 2.2000062-2.6925631-.1409634-1.3607446-1.0584475-2.351766-2.7100818-2.1755618l-3.89788136.4139271z"/><path d="m8.17954166 49.3455285c-1.25522577-.1277226-2.00180196.6577611-2.10956152 1.7573568-.1138707 1.1539848.40068632 2.4092105 1.8278385 2.5485443 1.10978092.1130558 1.62067125-.9233915 1.91583875-1.6970604.18638941-.4697421.31859351-1.2670406 1.05416961-1.1965589.6707982.0735372.7706133.7251872.7207058 1.2112256-.066815.6312796-.5695572.9470212-1.2546147.8294838l-.1238522 1.2360776c1.5738193.1998339 2.2211915-.660613 2.3472844-1.9525055.120593-1.2097997-.292723-2.4853959-1.845357-2.641026-1.26031841-.1293522-1.65081952 1.1142624-1.98122786 1.9510796-.18190792.4725939-.31329718 1.0099658-.98796576.9394841-.54531635-.0470556-.75900214-.5328904-.71561313-.9806324.05866683-.5844275.40068632-.8573913 1.0378733-.8427246z"/><path d="m7.40892837 48.1383769.2904823-1.6589676 5.13864413.9109655.2112414-1.1965589-5.14292198-.90791.29088971-1.6544862-1.0234103-.1851672-.79261335 4.5122536z"/><path d="m11.4094767 42.0325448.3324454-1.2450405c.1181485-.3795011.5997054-.3316306.9447805-.2701119.557946.0932966 1.1156883.1863894 1.6744491.2334451l.3524084-1.2927073c-.3988529.1299633-1.1209846-.0152779-1.520245-.0653891-.8626876-.1283337-1.4762449-.2904823-1.8235607.5777053l-.0189445-.0036667c.0203704-.7162242-.3701307-1.3161333-1.1657996-1.5259487-1.22731829-.3326491-1.81744959.5337052-2.07880218 1.4709486l-.61518693 2.3218214 6.04431341 1.622912.3132972-1.1706885zm-2.60150734-.7031871.25829703-.9808361c.14829672-.5123163.456705-.7530948.98959541-.6121314.5387978.1468708.7398539.5241311.6135573 1.0423548l-.2670563.983688z"/><path d="m13.5161864 36.3618251-2.1044689-1.8490238.0101852-.0152778 2.7504152.382353zm1.8630793 1.6335046-1.038077-.926447.9072989-2.0421355 1.375615.1702968.4962236-1.1165031-6.5146666-.7590022-.5836127 1.3147074 4.8872731 4.4181422z"/><path d="m19.4722958 30.3126228-.8802062-.5557053-1.2933184 2.0765615-4.4271052-2.7724153-.6445203 1.029114 5.3101632 3.3252687z"/><path d="m15.512692 25.1037007-.6927982.9938731 5.1302923 3.5990473.693613-.9924473z"/><path d="m20.4999839 25.1338489-1.4709486-2.382729.0101852-.0124259 2.5222664 1.1706885zm1.3118556 2.114043-.7290576-1.1957441 1.46443-1.6854492 1.2698925.5652793.7972986-.9227803-6.0113133-2.6373594-.9453916 1.086355 3.3920837 5.6617567z"/><path d="m29.0722674 20.202372-4.103419-4.7381616-.8602432.7457614 3.2209721 3.7157698v.0211852l-4.8455137-2.3150991-1.3593186 1.1802626 4.1068819 4.7375504.8531136-.7449466-3.4016578-3.9221222v-.0211852l5.0928107 2.4752107z"/><path d="m29.8870846 12.3532387-1.0482623.6070387 3.13012 5.435645 1.0511141-.6070387z"/><path d="m38.6048129 15.0641352-2.5456924-5.73305324-1.0335955.46322353 1.9930427 4.49167941-.0052963.0248519-3.9638816-3.635714-1.6412454.7280391 2.5471183 5.7375347 1.0350215-.4617976-2.1111912-4.7499764.0087593-.0236297 4.1474191 3.8612147z"/><path d="m37.8148477 9.7281016 1.6090601-.4615939 1.4401893 5.0310883 1.1657996-.3332602-1.4395782-5.0310883 1.609875-.4662791-.2847786-1.00202135-4.3881976 1.25970726z"/><path d="m44.3105698 13.3287785 3.8074367-.6687612-.1790561-1.0299288-2.6125073.458742-.2949638-1.6479676 2.3686733-.4198345-.180482-1.02626221-2.3666363.41698266-.2540192-1.44609668 2.527359-.44774201-.1827228-1.02544735-3.7173994.65327963z"/><path d="m50.2915312 9.91245397 1.2772258-.04175938c.3957974.00366668.4941866.47483471.5351312.81848381.0712965.5665016.1527782 1.1289291.2680748 1.6801529l1.3344667-.0462409c-.2356858-.3369269-.3104453-1.0747438-.3750196-1.4717634-.1338337-.86553949-.1542041-1.49967091-1.0863549-1.58339337v-.01242596c.684039-.19229684 1.1419662-.74963175 1.1148735-1.56200442-.0476668-1.28109622-1.0519289-1.59520822-2.0156538-1.56893037l-2.3923031.08759284.2202044 6.27164738 1.2047071-.0403335zm-.0953336-2.70437802 1.0107806-.03218528c.53452-.01181485.8529098.21348209.8726691.76918736.0185371.55937196-.2809082.86248393-.8123726.8897803l-1.014651.03300009z"/><path d="m59.6266872 12.7158323.4404087-6.262277-1.1319847-.07638911-.3428343 4.90499531-.0140556.0146668-1.7983014-5.07386625-1.7911717-.1283337-.4373531 6.26512885 1.1311698.0837224.3572974-5.19058871.019963-.01833338 1.8549311 5.36373739z"/><path d="m62.7028255 11.0032904 1.4116707-2.41878463.0134445.00142593.1497226 2.7864708zm-1.2476887 2.149895.7107243-1.200022 2.171895.5005015.1006299 1.3888557 1.1867811.2790749-.5033532-6.56192596-1.3976151-.32511203-3.3937133 5.65890489z"/><path d="m67.3136719 9.14611847 1.5546711.63189068-1.9541352 4.85508785 1.1240403.4530383 1.9516907-4.8514212 1.5577266.6267981.3876492-.96453975-4.2311416-1.71844931z"/><path d="m73.8994313 10.7690305-1.1002068-.4880755-2.5493591 5.7336644 1.1055031.4903162z"/><path d="m77.2599408 13.5622236c1.038077.5988905.6241499 1.7689679.086778 2.7027483-.5359459.929299-1.3411889 1.8718387-2.3753956 1.2690777-1.0335955-.593798-.626798-1.7602087-.0829076-2.695415.5365571-.9321508 1.3373186-1.8746905 2.3715252-1.276411m-2.7716004 4.821884c1.6133379.9337804 3.0455827.1277226 3.969789-1.4754301.927873-1.6045786.904447-3.2525463-.7105205-4.1877526-1.6149676-.9352064-3.0537309-.135056-3.9771224 1.4703375-.9213545 1.6068193-.9013914 3.254787.7178539 4.1928452"/><path d="m81.5291751 23.5753074 4.1101413-4.7361245-.8537247-.7477984-3.2195461 3.7186216h-.0242408l1.6113008-5.1398663-1.3536149-1.1788367-4.1121783 4.7397912.8573913.7406687 3.4014541-3.922937.0236297-.0028518-1.7353568 5.4018301z"/><path d="m85.1424816 23.8757713 2.5491554-1.1319847.0169074.0093704-1.5045598 2.3403584zm-2.2698768.9995769 1.2757999-.5540757 1.4683005 1.6883011-.7378169 1.1810774.7979097.9211508 3.4426023-5.5986085-.9474286-1.0863549-6.0561283 2.5744147z"/><path d="m88.2253422 31.7497565.8573913-.6003165-1.4049484-2.0048575 4.2781973-3.0028048-.6944279-.9932621-5.1282553 3.601288z"/><path d="m95.5762149 36.4697884c1.1446143-.5137422 1.4049484-1.5620045.9600582-2.5603591-.4695383-1.0584475-1.5340969-1.8873202-2.8420821-1.3014667-1.007114.4522235-.9380582 1.599486-.817669 2.4098217.070278.4978532.3507788 1.2590961-.3236861 1.5605784-.6109091.2717416-1.0242251-.2501488-1.2210034-.6905575-.2540193-.5807609.0295371-1.0975586.6842426-1.3403741l-.5043717-1.1319847c-1.4570968.6092795-1.5913379 1.6766899-1.0672068 2.853897.4939829 1.1063179 1.4776709 2.0020056 2.8958601 1.3697075 1.1444106-.5115014.8808173-1.7813939.7516688-2.6622112-.0780188-.4970384-.2305933-1.0313548.3927418-1.306763.4939829-.2281488.9182989.0845373 1.0981698.4911311.2371118.5387978.0770002.9439656-.4809458 1.241985z"/><path d="m97.2374233 42.5888612c1.4982449-.4632235 1.8095051-1.6009119 1.4746152-2.8553229-.426353-1.5783007-1.9950797-1.9188943-3.7597699-1.4432448-1.7691716.4705569-2.962675 1.556097-2.5397849 3.1343978.3346861 1.2582813 1.1684477 2.0855244 2.6968409 1.7316901l-.3346861-1.2478925c-.6363722.1768154-1.2375035-.0330001-1.4212448-.737002-.2267228-.8309098 1.0814661-1.4086151 1.9292833-1.633301.8470024-.2305932 2.2682471-.3876492 2.4884515.4485569.1872042.7017612-.2305933 1.1847441-.8706321 1.3499482z"/><path d="m93.6045611 45.7373146 2.7115077-.4807421.3713529 2.1221912-2.7056002.4776865.2063524 1.1943182 6.1697951-1.0914475-.217963-1.2104109-2.4348777.4345013-.3642233-2.1052838 2.4289699-.4302234-.2061488-1.1943182-6.163073 1.0894105z"/><path d="m99.7368748 52.2244811c.1130558 1.195133-1.0745401 1.5459118-2.1494876 1.6546899-1.0729104.1071484-2.3150991.0042777-2.4346735-1.196559-.1203893-1.1906515 1.0708734-1.5459118 2.1515246-1.6502084 1.0716882-.1130558 2.3093954-.0042777 2.4326365 1.1920775m-5.5525713.5565201c.1837413 1.8659312 1.6856529 2.5719702 3.5308063 2.3884327 1.8441348-.1849635 3.1728982-1.1743552 2.9891562-3.041916-.190667-1.8687831-1.6817821-2.5750259-3.5291763-2.3870068-1.8455607.1819079-3.1771756 1.1715033-2.9907862 3.0404901"/><path d="m99.330281 59.6370761c-.1513523 1.1847441-1.3823372 1.2682629-2.4495439 1.1348366-1.0651697-.1366856-2.2383027-.5066126-2.1018208-1.6972641.1499263-1.1892256 1.384578-1.2625591 2.446081-1.1319847 1.0708734.1307782 2.2482841.5037607 2.1052837 1.6944122m-5.5128489-.6797611c-.2261118 1.8541163 1.0747438 2.8701933 2.9033971 3.0918235 1.83782.2244821 3.3389168-.4389827 3.5695098-2.2916731.22326-1.8585979-1.070262-2.8687674-2.9054338-3.099157-1.8321163-.2202043-3.3370836.4404087-3.5674731 2.2990066"/><path d="m92.372965 66.180465 1.0077251.2642045.6306685-2.3621549 5.0441254 1.3505594.3077971-1.1700774-6.0420726-1.6223009z"/><path d="m31.0374026 79.1201683 1.3733743-1.4754301 1.1525588 1.0747438-1.3780595 1.4756338.6512426.6033721 3.1256385-3.3562318-.6547056-.6107054-1.237096 1.3271334-1.144207-1.0643549 1.2375035-1.3273371-.6451314-.6045943-3.1293052 3.3515466z"/><path d="m38.4960348 79.7237441c.7626689.4169826.4742236 1.2788554.0955373 1.9657463-.3817418.6870945-.9586323 1.3888558-1.7213011.9600582-.7693911-.4198345-.4809458-1.2800776-.1006299-1.9688018.3815381-.6897427.9580212-1.3841706 1.7263937-.9570027m-1.9745055 3.5542323c1.1941144.6608166 2.23871.0527594 2.8944341-1.1291329.6569463-1.1875959.6172239-2.3914882-.5756683-3.0521012-1.1957442-.660613-2.2387101-.0527594-2.897286 1.1275032-.6532796 1.1849478-.6143721 2.390266.5785202 3.0537309"/><path d="m44.1284582 86.1834105 1.4161521-4.3647716-.7871133-.2523896-1.1091698 3.4163245-.0152778.0099815-.3817418-3.9213074-1.2493184-.3992604-1.4196151 4.3604938.7883355.2540193 1.1743552-3.6133066.0177223-.0042778.3676862 4.1284747z"/><path d="m49.5787699 85.3598341-.1232411.9614842c-.2371118.0220001-.4756495.0427779-.8221505 0-.7810022-.0996114-1.0812623-.7810022-.951299-1.8101162.1291486-1.0232066.5785202-1.6178194 1.3564668-1.5210599.4874644.0602965.8009653.2980194.727428.8779655l.9360212.1132595c.1262967-1.0806512-.5520386-1.5709674-1.7404494-1.7178382-.8111504-.0998151-1.991413.3259269-2.2154877 2.137469-.2202043 1.81032.8229653 2.5031182 1.631875 2.6029333.5416496.064778.7457613.064778.9506878.0778151.3222602.0030555.6290389-.0203705.9431509-.0939077l.2805008-2.2755805-1.6825974-.2069636-.0910558.7547244z"/><path d="m56.5933268 82.4442147-.8808173.1100003.5610016 4.5497351.8779654-.1100003-.2849823-2.3228399h.0140556l1.7080604 2.146432 1.0910401-.13363-1.9380425-2.3150991 1.2535961-2.2199693-1.0335955.1250745-1.1171142 2.137469h-.0101853z"/><path d="m62.5025842 81.8760835c.8478173-.2393525 1.2478925.5681312 1.4650412 1.3242815.2159266.7587985.3033157 1.658764-.5306496 1.9023943-.8478172.2393525-1.2515591-.5709831-1.4687079-1.3285593-.2159265-.7530947-.2994453-1.6544862.5343163-1.8981165m1.1275032 3.9078629c1.3126704-.3770566 1.6223009-1.5428562 1.2450406-2.8437117-.369927-1.2933185-1.2515591-2.124432-2.5662665-1.7439124-1.3112445.3727788-1.6178194 1.5371525-1.2442258 2.8422858.3707418 1.2975963 1.2478924 2.1256542 2.5654517 1.7453383"/><path d="m71.0469603 82.4368814-2.2242471-4.0109373-.7207057.4006863 1.7384123 3.1462126-.0046852.0160927-3.1225829-2.3945438-1.1501144.6329092 2.2203767 4.0137891.7251872-.3992604-1.8423015-3.3238427.0073334-.0132408 3.2700648 2.5397849z"/><path d="m74.0141168 77.9221834.6738538.6946316c-.13363.1996302-.26726.3964085-.5241311.6473722-.5636498.5475571-1.2772259.3405936-1.9952835-.4006863-.7235576-.747391-.8938543-1.4711523-.3302046-2.0113761.3436491-.3405935.7302798-.4418345 1.1348365-.0132407l.6769094-.6575575c-.7575763-.7812059-1.5715786-.5581497-2.4289699.2727601-.5866683.5638534-1.0005954 1.7516531.2633897 3.0626938 1.2684665 1.3124667 2.4664514.9411138 3.0537308.3713529.3927419-.3772603.5233163-.5447052.6532796-.6870945.2098155-.2481118.3839826-.5049829.5241312-.7956689l-1.588486-1.6471528-1.2207998 1.1743551.526983.550409z"/><path d="m21.2471712 79.490299c-.3324454-.3245009-.6767056-.6972798-1.0305399-1.1114106l-.6591871.4550754 2.1331912 3.0125826-.579946.3964085-1.7337272-2.4517847c-.0808706.7502429-.0873891 1.3448556-.0148704 1.7956532.0484816.4768717.2159266 1.0906327.4978533 1.8335422l-.9608731-.0822965c-.0853521-.3507788-.153593-.6913723-.200445-1.0215769l-3.231361 2.2429878-.4638347-.6545019.3654455-.2542229-2.2519508-3.1857313-.3670751.2570749-.4654643-.6549093 3.2270832-2.2417656c-.3053527-.1499264-.5948165-.3126861-.8663543-.4978533l.3053527-.9761509c.8221505.8162431 1.8960795 1.4035225 3.2417499 1.7618383l-1.8616534-2.6294148.5762794-.40089 2.1661913 3.0655457.6047981-.4228901c-.4638347-.5711868-.9425398-1.2171331-1.4511893-1.934987l.3442602-.794243.6107054.8647247c.940299 1.3330408 1.934987 2.4619699 2.9889529 3.3853614l-.179056.8852988c0 .0456298-.0293335.1028707-.0945188.1423893-.0419631.0368705-.0706854.0309631-.0786299.0177223-.0440001-.0645742-.0792409-.1305744-.0792409-.1967783-.0572409-.110204-.0910559-.1776302-.1161115-.2069636-.0615187-.0908521-.1951487-.2275377-.3758344-.3978344zm-5.3012002 3.7613995.6355574-.4420383-2.2535805-3.1857312-.6428907.4432605zm1.1847441-.825206.606224-.4169827-2.2550064-3.190009-.604798.4241123zm1.5569118-.2232599c-.0602964-.3271491-.0845372-.6267981-.0916669-.9144285-.0103889-.6080573.0293334-1.2377072.1313893-1.8748942l-1.0798364.747391-.4837977-.6842427 1.0533549-.7339465c-.929299-.1733524-1.7866903-.4538532-2.5845999-.8547432z"/><path d="m22.9179537 88.3530648c-.926447.3731862-1.8394496.6872982-2.7410448.9472249-.1218151.1438152-.2267228.1965746-.2980193.1364819l-.1841487-.873484c1.0665956-.1967783 2.1382838-.5243348 3.242361-.9647435zm4.1944749-2.5161553.7339465-.8852988.5204644.5005014c.0983892.0912596.1313893.1542042.0932966.198408-.0279075.0366668-.1203893.0556113-.2621674.0763891l-.492557.5944091.8751136.7164279.739854-.8808173.5328903.5241312c.0896299.0969632.1277226.1702967.0814818.2230561-.0211853.0295372-.1100004.0442039-.2356859.0499076l-.494594.590335 1.1670218.9614842-.4469272.53452-1.1664107-.9572064-.5887053.7031872 1.3336519 1.0908364-.4778903.5711868-1.0775956-.881021c-.0050926.3831677.0205741.6899464.0837225.9075026.0535742.3139083.2055376.6705945.4471309 1.0847253l-1.0079288.1894449c-.1409634-.4125011-.2283525-.8207245-.2701119-1.2317997l-1.2713184 1.5298191-2.112006-1.7325049-.4102604.4874643c-.1542041.1865932-.1615375.3407973-.0087593.4638347l1.7219123 1.4110595c.1248707.0998151.2503526.1423893.3847974.1234448.1006299-.0207778.3428343-.1865931.715002-.5170014l.4683161.6769093c-.4499827.4108715-.8001504.6237425-1.0643548.6549092-.2835564.0099816-.5440942-.0678335-.7810022-.2644081l-2.0386725-1.6679307c-.4703531-.3845936-.5571312-.7471873-.2780563-1.0775956l1.7881162-2.1492839c-.2937416.0030556-.613761-.0264815-.9439657-.0629446l-.1423893-.9808361c.5563164.1499264 1.0686327.2232599 1.5369488.2424081.2100191.014463.4668902-.0061111.7854837-.0499075l-1.106929-.9103545.4756495-.5667053 1.1590773.9468175.5880943-.7031872-1.0755586-.8779654.4471309-.5343163zm-3.1828794.5740387-.8133912.1071484c-.1195744-.5548904-.2935379-1.1085587-.5117052-1.666301l.8258172-.0792409c.2379266.5872794.40089 1.1334106.4992792 1.6383935zm2.3709141 3.9433074-1.4960042-1.2273183-.5402238.6532797 1.4945783 1.2289479zm-.4404087-5.6419974-.7457613.1000188c-.099204-.5227052-.2627785-1.0468363-.4646495-1.5636341l.7824282-.077815c.2202043.5534645.3603528 1.0745401.4279826 1.5414303zm1.3206149 5.455608c-.0301482-.377464-.0140556-.7781503.043389-1.1937071l-1.0307437-.8412986c-.4675013.1499263-.8531135.2497414-1.151744.2866119zm.3668714-1.888135.5872794-.7046131-.8777617-.7178538-.5850387.7017612z"/><path d="m33.23802 94.9993243c-.7612429.6797612-1.5298192 1.2817074-2.2967658 1.8278385-.0719076.1702968-.1755931.2436304-.2776489.2010562l-.4182049-.8103357c.9394841-.5447052 1.8659312-1.2053182 2.774656-1.9832648zm.5190385-1.9392647-.7341503.3344824c-.2568711-.4974458-.5467422-.9849102-.894058-1.4577078l.7722429-.3082046c.3581121.4976496.6422796.9775768.8559654 1.43143zm1.8351718 3.2898241c.1034818-.1421856.2134821-.3096305.3169639-.5005014l.6887242.3905011c.0983891.054389.1387226.1042966.1128521.1542041-.0203704.0631484-.1026669.0865744-.2377229.0896299-.0470557.0629446-.0953336.1277226-.1366855.1776302l2.3857845 1.0071139-.2788712.6473722-2.2124322-.9309285c.091667.3275564.2495378.6241499.4703532.8973173.2489267.3668714.6997242.7706133 1.3499483 1.2271146l-.8190949.4112789c-.5357423-.4404086-.9506879-.8999655-1.2436146-1.3947632-.1965747-.3273528-.3214454-.691576-.393353-1.0936883-.4214642.2935379-.9160582.4622051-1.487245.5064089-.4550753.054389-1.0203547.0264815-1.6970603-.0529631l-.2151117-.8148171c.8655394.1572597 1.4982449.2041116 1.9203202.1130558.348538-.045426.648187-.1525745.9022063-.3096305l-2.045191-.8632987.2788712-.6487981zm-.5534645-5.258626-.6797612.3143157c-.234871-.5271867-.5102792-1.0205584-.8339653-1.5049672l.7310947-.2935379c.3369268.5080385.6109091 1.0012066.7826318 1.4841894zm3.5234729.2774452c.0939077.0631484.1342412.1336301.1128522.1806857-.0336112.079241-.1232411.1334263-.2633896.1672413l-.2503526.1806857 2.3049139.9704471-1.8431163 4.2898085-.7070575-.299649.6673352-1.556097-1.129744-.4756495c.0690558.1937228.1497227.359538.2371118.4903162.1328152.1863894.3267417.4037419.570372.6459463l-.6803723.2717415c-.1990191-.2540193-.3515936-.5139459-.4522235-.7577799-.0535742-.126093-.1051114-.2509637-.1269078-.38439l-.4000752.9248174-.6461499-.2745934.4104641-.9527249c-.135056.0704817-.24526.1364819-.3450751.180482-.2232599.1203892-.5167977.2055376-.8838728.2760193l-.2236673-.6944279c.3118712.0103889.5966498-.0321853.8571876-.1203892.1183522-.0293334.2385377-.079241.3854085-.1527782l-1.0555956-.4432605-.6679463 1.5577266-.7068539-.3025009 1.8416904-4.2883825 1.7720235.747391.6636686-.5638534zm-2.6618038 2.1287098c0-.1423893-.0197593-.3169639-.0380927-.4976496l.5286126.0602965c.0570372.2540192.0894262.4872606.0894262.6811871l.2825378.1201855.3075935-.7178539c-.2721489-.0731298-.5277978-.1629634-.7993356-.2568711l-.1711116-.7074649c.4978533.1937227.9301137.3448713 1.3102259.4550753.3281676.0953336.7524836.2024821 1.2647999.3198158l.2466859.613761c.0022407.0397223.0044815.0808706-.0079445.1159077-.0126296.030963-.0389075.0236297-.0786298.0103889l-.157056-.1055188c-.0580558-.0281112-.1322041-.0515372-.2047228-.0676298-.2430192-.0501113-.4837977-.1130559-.7202984-.1835376l-.3428343.7970949.288649.1203892.4638346-.4903162.4125012.2774452c.077815.0560187.1116299.0998151.0910558.1423893-.0211852.0501113-.0939077.0808706-.2083895.1073522l-.1967783.1994265.5675201.2409821.6524648-1.5224858-3.4823246-1.4666708-.6532797 1.5180043z"/><path d="m44.3339958 99.1571324c-.4102604.7105205-.8345764 1.3711336-1.2662258 1.9688016-.0293334.18639-.0896299.283149-.1835376.267057l-.6107054-.651854c.5887054-.640039 1.1466514-1.38743 1.6736344-2.236062zm.3634084-2.4399699-.5954276.4770754c-.3324454-.5432793-.7156131-1.0468362-1.1413551-1.507819l.6208907-.4609828c.4595568.4846125.8296875.9879657 1.115892 1.4917264zm.7494281-2.2623397-.593798.471168c-.3273528-.4815569-.6870945-.9250211-1.0995957-1.3477075l.6267981-.4683162c.4308345.4448902.7913911.8852988 1.0665956 1.3448557zm.6019461.9248174c.091667.023426.1432041.0602965.1322041.1175374-.0036667.0425742-.0507224.0851484-.1322041.1291485-.1916857.9013914-.3750195 1.5575229-.5322793 1.9761352-.1195744.2992416-.281723.6121314-.4638346.9174841l-.7355762-.2613526c.2173525-.3405935.3839826-.6270018.480131-.8763358.1776302-.4507976.3744085-1.1613181.5695572-2.1596728zm1.3750039-1.8484126c.101241.0338149.1503338.0763891.1452412.1234448-.0101852.0763891-.079241.1334263-.1790561.1629634-.1931116 1.1140587-.3583158 2.1521357-.502131 3.119731-.1262967.8543358-.2782601 1.6015231-.4448902 2.249099-.1269078.4931681-.290686.9777802-.4742236 1.4255222-.1717227.380113-.3933529.766336-.6620389 1.174559l-.7524836-.44489c.2782601-.336112.5153719-.69015.704002-1.080651.1937228-.3933531.3538344-.8410951.4874644-1.3415965.1452411-.5271867.2833526-1.2142812.415353-2.0877652l.52352-3.4868061zm.5768905 4.897662-.7575762.3744085c-.0087593-1.1010217-.054389-2.0598577-.124667-2.8803786l.6107054-.3524084c.115093.7575762.205334 1.7117271.2715378 2.8583785zm1.4167633-4.3001974c.1187596.0236297.1790561.0633521.1745746.1161115-.0079445.0497038-.0660002.1071484-.169482.1702968l-1.1063179 7.3641135-.7221317-.102871 1.1523551-7.6945215zm.6870945 4.6114575-.7606317.3729826c-.0028519-1.1040772-.0454261-2.0584318-.1203893-2.8789526l.6033721-.3568899c.1277226.7561503.220408 1.7147826.2776489 2.8628599zm1.4577079-4.628976c.1322041.0307593.1939264.0631483.1872042.1203892-.0079445.046852-.0747595.0998151-.1768153.1629634l-1.2157072 8.0952077-.7229464-.10287 1.2617443-8.4225611z"/><path d="m62.3457319 93.3609308 1.2315961 8.0512082-.7606318.113056-.0440001-.283353-6.2459806.935206.0462409.286205-.76328.115908-1.2283368-8.0540602zm.314112 7.1467612-.9647434-6.3083144-6.242314.9364286.963725 6.3070918zm-3.764455-4.8153657c-.0556113-.2963897-.0998151-.5929832-.1568523-.9101507l.7280391.0440001c.0967595.0059074.146667.0338149.1527782.0939077.0138519.0617224-.0160927.1423893-.0763891.2261117.0203704.1542042.0440001.2994453.0763891.4361309l1.0818734-.1629634c-.2540192-.2026858-.491131-.3597418-.7076687-.4829829l.4110753-.5051866c.265834.1409634.5404274.3185935.8201134.5418534l-.3707418.4271679.6781316-.1042966.1000188.6504277-1.8897647.2878342c.1513523.6972797.3318343 1.2975962.5447053 1.7952458.043389.1059262.0971669.2055376.1468708.2937416 0-.0101852.0103889-.0205742.0103889-.0205742.2061487-.5241311.3259268-1.0953179.3670751-1.711727l.6972798.0969632c.0761854.0160926.1291485.0364631.1334263.0733335.008963.0556113-.026889.1334264-.1100003.2098155-.1175374.8516876-.3073898 1.5241154-.5777054 2.0054686-.0195556.0293334-.0299445.0529631-.0403334.0706854.0600927.0761854.1173336.1362781.1739634.1833338.1366856.13363.2466859.1792598.334075.1702968.0688521-.0101852.1531857-.290686.2365007-.8543357l.6604093.4139271c-.2200006.9072988-.4640384 1.3741889-.7178539 1.4108559-.1961672.029333-.4864458-.099815-.8470024-.3860197-.0941114-.0806669-.1865931-.1806857-.2768341-.2805008-.2701119.3436495-.6039832.6767055-1.0042621 1.0232065l-.6540945-.387445c.3599455-.280501.6636686-.5667058.9046508-.8472065.1026669-.1189633.2061487-.2495378.2992415-.3874456-.1729449-.2805008-.3332602-.5799461-.4837976-.9160581-.1825191-.4640384-.3632048-1.0851327-.5165941-1.8528942l-2.9730639.447742-.0998151-.6547055zm-.1568523 1.209596.3008712 1.998339-2.3564511.3566862-.3096305-1.9997649zm.5577423 2.8923971c-.4668902.1835375-1.2010405.4359276-2.1991914.7634836-.0397224.112852-.0924818.170093-.1527782.180482-.0541854.00713-.0873892-.026482-.0998151-.113056l-.2774453-.7253908c.8940581-.212871 1.7785421-.4666865 2.6257482-.7663355zm-1.1545959-2.1757654-.9845028.1468707.1175374.7604281.983688-.1440189z"/><path d="m67.1566159 91.793019c.0042778-.0867781.0242408-.1364819.0513335-.1438153l.8164468.2202044-.010389 1.5180043c.4182049-.739854.6547056-1.6251528.7207058-2.6497853l.5805572-.0252593c.0873891.0030555.1307781.0134444.1403522.0397223.0132408.0366668-.0057037.0763891-.0727224.1130559-.0169075.1307781-.0330001.2568711-.0431853.3772603l.6738538-.2802971c.0761854-.110204.1299633-.1776301.1731486-.1937228.0197593-.0059074.1466671.0366668.3978345.1203893-.0344261-.0236297-.057241-.0602965-.0739447-.0941114l.5438904-.3067787c.4505939.6575575.9276693 1.1244477 1.4247078 1.40943.0138519.0118148.0397223.0191482.0637594.0321852l-.0240371-1.3784668-.8808173.3713529-.2570748-.6078536.9842991-.4094456.1366855-.1381115c.0637595-.0307594.1342412-.0262779.2112414-.0160926l.4829828.0837224c.066815.0118149.110204.0395186.1234448.0704817.0264816.0719076-.0067222.1658153-.0831113.2686859l-.003463 2.0889874c.3302046.1305745.7046131.2261118 1.1275032.3171676l-.4404087.7341502c-.2232599-.0690557-.4302234-.1497226-.613761-.2336488l.1872043.4507976-3.110157 1.2904666-.1967783-.4595569c-.180482.2967972-.4037419.5830017-.6634648.8545395l-.6579649-.3171676c.3306121-.3008712.6035758-.6050017.7979097-.9115766.0126297-.0132408.019963-.0264816.0230186-.0397224-.3275565-.1393337-.6579648-.2540192-.9977436-.359538-.0637594.1364819-.1195744.2654267-.1768153.3756307l-.4976496-.2391488-.0030555.7634836c.7414836.447742 1.2348553.9378545 1.4579115 1.4738005.2342599.5550941.2943527 1.0423548.1908709 1.4652449-.1034818.4271678-.3444639.7076686-.7143909.8618728l-.5730201-.6005203c.316149-.220408.4929643-.456705.5225014-.7019649.023426-.2024821-.0264815-.4695384-.1658152-.8001504-.1741672-.4094456-.6447241-.8512802-1.3947632-1.3314112l-.0969633-2.3460622-.9975398.4141308 2.9757121 7.036557-.7141872.2980193-3.2429722-7.6810773.3377417-.1395374zm2.7997117 1.6149675c.0440001-.1175374.079852-.2379266.1203892-.3744085 0 0 .0028518-.0087593.0073333-.023426-.3605565-.1262966-.7084835-.2362969-1.0651696-.3200194-.0403335.1362782-.0735373.2495378-.113667.3507788.3843899.1073521.7235576.2261117 1.0511141.3670751zm.2171487-1.0042621c.0205741-.2436303.0205741-.5108903.0205741-.8044282l-.9908176.4096493c-.0148704.0440001-.0148704.0880002-.0236297.1142781.3558714.0735372.6938168.1631671.9938732.2805008zm4.4440126 1.4240966.2833526.6769093-2.0612836.8573914.6974835 1.6530602c.1232411.2862045.1334263.5298348.0395186.7296687-.0763891.1937228-.359538.4035382-.8632987.6107054l-.6208907-.6166128.480131-.1939265c.1542042-.070278.216334-.1863894.1635746-.3611677l-.6408537-1.5106709-2.0319502.8382431-.2802971-.6781315zm-3.0023974 2.8964712c.0662039.0191482.110204.0472594.12263.0794446.0272964.0602965-.0095741.1130559-.0961484.1643894-.1201856.5300385-.3668714 1.140744-.7235576 1.8484126l-.8547432-.2362969c.3870381-.5447053.6844464-1.2024664.9117804-1.96595zm1.463819-3.7375662c-.1922969-.0794446-.3597418-.1629634-.5167978-.2393525-.4265568-.2305932-.7810022-.4947977-1.0643549-.778354-.1900561-.1672413-.4006863-.3905011-.6239462-.6793538-.0191482.1159077-.0366667.3065749-.0293334.550409-.0073333.7765207-.110204 1.3770409-.2943527 1.8115421-.0660002.1688709-.1432041.3363158-.2362969.4829829zm2.7864708 3.1431571-.3801122.7869096c-.7913911-.2790748-1.4249114-.6064276-1.9219499-.9761509l.4037419-.5375756c.5872795.346501 1.218559.5872795 1.8983202.7268169z"/><path d="m77.2430334 86.9674683c-.1863895.2642044-.4065938.5447052-.6494093.8410949l.2627785.3242973.9716694-.761854.3905011.4874643-.9775768.7604281.3025009.377464.971262-.7606318.393964.4933718-.9747249.761854.2935378.3656492 4.2957159-3.3531762-.2904823-.369927-.9537434.748817-.3941678-.4947977.951299-.7443355-.3008713-.3803158-.9470212.747391-.3905011-.4905199.9535398-.7443355-.303112-.3744085-.9777805.7679652-.4375568-.5477608 1.6186342-1.2595036 2.1060985 2.6485631.4864458-.3805196 1.1482811 1.4446707-.6276129.4976496-.7135761-.8938544-5.2470149 4.0973079.7105206.8912062-.6369833.4964273-1.1466514-1.4477263.460168-.3611677-2.1323764-2.6793224.4300197-.0806669c.1440189-.1629634.2835564-.3200194.4112789-.4903162.1525745-.1998339.2729638-.4200382.3764455-.6532796l.7302799.1040929c.0772039.0087593.1366856.0366668.1702968.079241.0338149.0470557.0236297.0806669-.0130371.1071484l-.1967783.0822965c-.0366668.0279075-.0808706.0837225-.1242596.144019zm1.9726722-2.0584318c.0674261-.0103889.0996114-.0103889.1203892.0175186.0499076.0560187.0395187.1234448-.0134445.2026857-.0468519.2232599-.0939076.4404087-.1438152.6267981.2540193-.0101852.503557-.023426.7620577-.0321853l-.0969632.590335c-.3110564 0-.5887054.0071297-.8588172.0203705-.1028707.2731674-.2202044.5726127-.3764456.8940581l-.5675201-.0704817c.1364819-.2758156.2407785-.5343163.3228713-.7810022-.279686.0397223-.5402237.0808706-.7934282.1248707l.0733336-.5314645c.2900749-.0602964.5976683-.1071484.9007803-.1497226.0674261-.2436303.1034818-.5139459.1307781-.7944467zm1.162744 1.3947632c.0556113-.0191482.0924818-.0160926.1159078.0103889.0440001.0570372.0336112.1203893-.0197593.203908-.0462409.2230562-.0961485.433279-.1432042.6107055.2173525-.0071297.4499828-.0044815.6769094 0l-.0898336.5858535c-.2701119-.0030556-.5210756-.0160927-.7640948-.0191482-.0932965.2670563-.2303895.5770942-.3986493.9233915l-.563446-.0733336c.1466671-.2965934.2699082-.5830016.3505751-.8412986-.314112.0307593-.6180388.0645742-.8983359.1071484l.0835188-.5371682c.3275564-.0456297.6512425-.0896299.9777805-.1130559.0537779-.2336488.0971669-.4801309.1279263-.747391zm2.0883763 1.6457269.4968347-.054389c.0696669-.0028519.1100004.0103889.1364819.0397223.0470557.0572409.0338149.1482967-.0099815.2847786l-.4699458 1.6679306 2.6322667-2.0553762.4609828.573835-2.827008 2.2050988.3049453.3774641c.2202044.280297.2919083.5709831.2202044.8410949-.0309631.2525933-.3583159.6270018-.9655583 1.0995957l-.7640948-.4316493.6644834-.5182237c.2267228-.1776302.2737785-.3801122.1203892-.6033721l-.2136858-.2701119-2.9097119 2.2741546-.4611865-.5797424 2.9099156-2.265599-.2729637-.3507787.4565013-.2701119.1240559-.8294838-2.3658215 1.8512644-.4186123-.5286126 2.8571562-2.2285248.0967596-.1599078c.0602964-.0425742.1307781-.0660002.1975931-.0690558z"/><path d="m85.4830752 81.2592669-1.6891159-1.1979848.4880754-.5607979c.0969633-.1040929.1733524-.1393337.2202044-.1040929.0368704.0277038.0560187.1071484.0698705.2303895l1.3778558.9822621.5842239-.7972986.6304647.4463161-.5410386.7502429c1.0645586.2980193 2.023191.4271678 2.8732489.3801122l.1599079.7781503c-.6377981-.0527594-1.3006519-.1702968-1.9789871-.3304083l3.3311761 2.3654141-.4713717.650224-3.2268795-2.2947287c.1271115.1499264.2644081.2965934.380927.4228901.4660754.5108903.8773543.9983547 1.2210034 1.4709486l-.9207433.3318343c-.2503526-.5078348-.5540756-1.0085399-.9144285-1.5047635-.2297784-.3273528-.5931869-.7911875-1.1012254-1.3815225l-.5467422.7575762-.637187-.447742zm1.263985-5.2278666c.1040929-.110204.1776302-.1482967.2303896-.110204.0366668.0264815.0696668.1189633.0969632.2525933l.7510577.5300385 1.1971701-1.6544861.6039831.4271678-2.8767118 3.9608261-.595835-.4271679 1.177207-1.6251528-1.0812623-.7663355zm1.4049485 2.2975806c.0763891-.0600928.1468707-.0851484.1863894-.0600928.0205741.0203704.0368705.0674261.0470557.1277226-.0264816.0676298.0440001.2597229.2069635.6003165.2568711.5432793.4404087 1.1114106.5667053 1.7088752l-.8168541.3905011c-.1242597-.8015763-.3972234-1.5648563-.8243913-2.3267103zm3.343602-1.7852643-.0299445.8706321c-.8472061-.0615187-1.6312639-.0220001-2.3623586.1073521l-.0499075-.7431132c.7135761-.1599079 1.5245228-.234871 2.4422106-.234871zm-.2202043 1.0085398c.0462409-.0336112.0932965-.0366667.1358707 0 .048278.0295372.048278.1132596.0071297.2334452.4473346.7282428.770817 1.3874298.9345952 1.96595.7003353-.1953524 1.4483375-.5506127 2.2556175-1.0879846l.2805008.873484c-.895484.4638346-1.6919677.7913911-2.3965808.9675953.0806669.7310946-.0030556 1.601523-.2371118 2.6161741l-1.0003917.1806856c.3601491-1.0820771.4937791-1.96595.4074085-2.6426556-.7380206.0733336-1.5489673-.023426-2.4387476-.2774452l.2731674-.7003353c.727428.2069635 1.3945595.2802971 2.0148391.2157228-.1798709-.5638534-.4911311-1.1802626-.940299-1.8704127z"/></g></g></svg>